<svg width="11" height="20" viewBox="0 0 11 20" fill="none" xmlns="http://www.w3.org/2000/svg">
<path d="M10.7044 1.68626C10.7988 1.59084 10.8726 1.4786 10.9216 1.35595C10.9706 1.23329 10.9939 1.10262 10.99 0.971395C10.9861 0.84017 10.9552 0.710961 10.899 0.591145C10.8428 0.47133 10.7625 0.363254 10.6625 0.273089C10.5626 0.182924 10.4451 0.112435 10.3166 0.0656467C10.1882 0.0188586 10.0513 -0.0033124 9.91388 0.000399767C9.77645 0.00411193 9.64114 0.0336344 9.51566 0.0872817C9.39018 0.140929 9.277 0.21765 9.18257 0.313065L0.286093 9.30779C0.102368 9.49335 0 9.73902 0 9.99438C0 10.2497 0.102368 10.4954 0.286093 10.681L9.18257 19.6767C9.27637 19.7742 9.38953 19.8529 9.51547 19.9083C9.64141 19.9637 9.77762 19.9947 9.91619 19.9994C10.0548 20.0041 10.1929 19.9824 10.3227 19.9357C10.4524 19.889 10.5711 19.8181 10.6719 19.7272C10.7728 19.6363 10.8537 19.5272 10.9099 19.4062C10.9662 19.2852 10.9967 19.1547 10.9998 19.0223C11.0028 18.89 10.9782 18.7584 10.9275 18.6351C10.8768 18.5119 10.801 18.3995 10.7044 18.3045L2.48614 9.99438L10.7044 1.68626Z" fill="#AD8E7D"/>
</svg>
