<svg width="22" height="22" viewBox="0 0 22 22" fill="none" xmlns="http://www.w3.org/2000/svg">
<path d="M15.9313 5.38378V1M6.06639 5.38378V1M5.44968 9.76757H16.548M5.44968 15.2465H16.548M20.9988 16.4962V7.72865C21.0038 7.13439 20.8764 6.54513 20.6239 5.99483C20.3715 5.44453 19.999 4.94408 19.528 4.52231C19.0569 4.10053 18.4966 3.76579 17.8793 3.53736C17.262 3.30893 16.6 3.19133 15.9313 3.19135H6.06639C5.40092 3.19149 4.742 3.30813 4.12724 3.5346C3.51249 3.76106 2.95395 4.09293 2.4835 4.51124C2.01306 4.92956 1.63992 5.42613 1.3854 5.97261C1.13089 6.51909 0.999972 7.10477 1.00013 7.69622V16.4638C0.995317 17.058 1.12284 17.6471 1.37535 18.1973C1.62785 18.7474 2.00036 19.2478 2.4714 19.6694C2.94244 20.0911 3.5027 20.4257 4.1199 20.6541C4.73711 20.8825 5.39906 21 6.06761 21H15.9325C17.2765 21 18.5654 20.5255 19.5158 19.6809C20.4661 18.8362 20.9988 17.6907 20.9988 16.4962Z" stroke="#56453C" stroke-width="2" stroke-linecap="round" stroke-linejoin="round"/>
</svg>
