<svg width="26" height="27" viewBox="0 0 26 27" fill="none" xmlns="http://www.w3.org/2000/svg">
<path d="M13.0263 17.8294C13.6164 17.8294 14.2008 17.7149 14.746 17.4925C15.2912 17.2701 15.7866 16.944 16.2039 16.533C16.6212 16.122 16.9522 15.6341 17.178 15.0971C17.4039 14.5601 17.5201 13.9846 17.5201 13.4033C17.5201 12.8221 17.4039 12.2465 17.178 11.7095C16.9522 11.1725 16.6212 10.6846 16.2039 10.2736C15.7866 9.8626 15.2912 9.53658 14.746 9.31415C14.2008 9.09172 13.6164 8.97723 13.0263 8.97723C11.8345 8.97723 10.6914 9.44355 9.84868 10.2736C9.00593 11.1037 8.53247 12.2294 8.53247 13.4033C8.53247 14.5772 9.00593 15.703 9.84868 16.533C10.6914 17.3631 11.8345 17.8294 13.0263 17.8294Z" stroke="#AD8E7D" stroke-width="1.7" stroke-linecap="round" stroke-linejoin="round"/>
<path d="M24.8501 17.4215C24.3208 18.9206 23.5036 20.3054 22.4429 21.5003L19.6055 20.8661C18.5294 21.8167 17.2509 22.518 15.8638 22.9186L15.097 25.654C14.3783 25.7809 13.6498 25.8465 12.9196 25.85C12.006 25.8511 11.0953 25.7495 10.2051 25.5474L9.39157 22.7239C8.17912 22.2837 7.06458 21.6166 6.10937 20.7595L3.30407 21.47C2.19153 20.1895 1.35645 18.6985 0.850098 17.0886L2.92068 14.823C2.7317 13.6643 2.76296 12.4811 3.01285 11.3337L0.970325 9.23512C1.56407 7.58902 2.50514 6.08548 3.73154 4.82351L6.63035 5.534C7.42856 4.90365 8.31779 4.39412 9.26867 4.02224L10.0354 1.22765C10.9825 0.986083 11.956 0.859275 12.9343 0.850037C13.7157 0.850037 14.4972 0.921085 15.2653 1.06055L16.0014 3.84067C17.1101 4.1946 18.1494 4.73536 19.0685 5.4419L21.9833 4.70115C23.1593 5.8685 24.0871 7.25512 24.7125 8.77988L22.7354 10.8942C23.1104 12.3432 23.1415 13.8577 22.8263 15.3203L24.8501 17.4215Z" stroke="#AD8E7D" stroke-width="1.7" stroke-linecap="round" stroke-linejoin="round"/>
</svg>
