<svg width="39" height="37" viewBox="0 0 39 37" fill="none" xmlns="http://www.w3.org/2000/svg">
<path d="M13.1832 11.5662L17.9903 1.92832C18.1302 1.64939 18.3455 1.41479 18.6118 1.25082C18.8782 1.08685 19.1852 1 19.4983 1C19.8115 1 20.1185 1.08685 20.3848 1.25082C20.6512 1.41479 20.8664 1.64939 21.0063 1.92832L25.8135 11.5662L36.5602 13.121C36.8702 13.1638 37.1619 13.2924 37.4019 13.4924C37.6419 13.6923 37.8207 13.9553 37.9177 14.2515C38.0148 14.5477 38.0262 14.8651 37.9507 15.1675C37.8753 15.4698 37.716 15.745 37.491 15.9615L29.7159 23.4589L31.5514 34.051C31.7864 35.4105 30.3431 36.4457 29.109 35.8047L19.4983 30.8015L9.88586 35.8047C8.65354 36.4476 7.21028 35.4105 7.44527 34.0492L9.2808 23.457L1.50571 15.9597C1.2818 15.743 1.12343 15.4681 1.04861 15.1663C0.973796 14.8645 0.985531 14.5478 1.08248 14.2523C1.17943 13.9568 1.35772 13.6943 1.59706 13.4946C1.8364 13.2949 2.12721 13.1661 2.43643 13.1228L13.1832 11.5662Z" fill="#AD8E7D" stroke="#AD8E7D" stroke-width="2" stroke-linecap="round" stroke-linejoin="round"/>
</svg>
